<svg viewBox="0 0 128 128" xmlns="http://www.w3.org/2000/svg">
  <path fill="#f0f0f0" d="M64 0C28.7 0 0 28.7 0 64c0 28.3 18.3 52.3 43.8 60.8 3.2.6 4.4-1.4 4.4-3.1 0-1.5-.1-6.6-.1-12-16.2 3-20.4-3.9-21.7-7.5-.7-1.9-3.8-7.5-6.5-9-2.2-1.2-5.4-4.1-.1-4.2 5-.1 8.6 4.6 9.8 6.5 5.7 9.6 14.9 6.9 18.5 5.2.6-4.1 2.2-6.9 4-8.5-14.1-1.6-28.8-7-28.8-31.2 0-6.9 2.5-12.6 6.5-17-.6-1.6-2.8-8 .6-16.7 0 0 5.3-1.7 17.4 6.5a58.3 58.3 0 0131.8 0c12.1-8.3 17.4-6.5 17.4-6.5 3.4 8.7 1.2 15.1.6 16.7 4 4.4 6.5 10 6.5 17 0 24.3-14.8 29.6-28.9 31.2 2.3 2 4.3 5.8 4.3 11.8 0 8.5-.1 15.4-.1 17.5 0 1.7 1.2 3.7 4.4 3.1C109.7 116.3 128 92.3 128 64c0-35.3-28.7-64-64-64z"/>
</svg>
