<svg viewBox="0 0 128 128" xmlns="http://www.w3.org/2000/svg">
  <defs>
    <linearGradient id="python-a" x1="12.9%" y1="12.5%" x2="79.6%" y2="78.8%">
      <stop offset="0%" stop-color="#387EB8"/>
      <stop offset="100%" stop-color="#366994"/>
    </linearGradient>
    <linearGradient id="python-b" x1="19.1%" y1="20.6%" x2="90.6%" y2="88.5%">
      <stop offset="0%" stop-color="#FFE052"/>
      <stop offset="100%" stop-color="#FFC331"/>
    </linearGradient>
  </defs>
  <path fill="url(#python-a)" d="M63.4 0C31.1 0 33.1 13.9 33.1 13.9l.1 14.4h30.8v4.3H19.6S0 29.8 0 62.4c0 32.6 17.1 31.4 17.1 31.4h10.2V78.8s-.5-17.1 16.8-17.1h29c0 0 16.3.3 16.3-15.8V17.6S92.3 0 63.4 0zM46.2 10.2a5.4 5.4 0 110 10.8 5.4 5.4 0 010-10.8z"/>
  <path fill="url(#python-b)" d="M64.6 128c32.3 0 30.3-13.9 30.3-13.9l-.1-14.4H63.9v-4.3h44.5S128 98.2 128 65.6c0-32.6-17.1-31.4-17.1-31.4H100.7v15s.5 17.1-16.8 17.1h-29c0 0-16.3-.3-16.3 15.8v28.3s-2.9 17.6 26 17.6zm17.2-10.2a5.4 5.4 0 110-10.8 5.4 5.4 0 010 10.8z"/>
</svg>
