<svg xmlns="http://www.w3.org/2000/svg" viewBox="0 0 1200 800">
  <path fill="#E30A17" d="M0 0h1200v800H0z"/>
  <circle cx="444" cy="400" r="240" fill="#ffffff"/>
  <circle cx="474" cy="400" r="192" fill="#E30A17"/>
  <path fill="#ffffff" d="M623 400l-45.7 14.8 17.5 44.9-46.6-12.3 2.7 48 37.2-30.8 45.7 15-17.5-44.9 46.6 12.3-48-2.6-29.3-38.3z" transform="rotate(-18 633 400)"/>
  <g transform="translate(633 400) rotate(-18) translate(-633 -400)">
     <polygon fill="#ffffff" points="633,322.6 655.6,368.5 706.2,375.8 669.6,411.5 678.2,461.9 633,438.1 587.8,461.9 596.4,411.5 559.8,375.8 610.4,368.5"/>
  </g>
</svg>
